<?xml version="1.0" encoding="utf-8"?>
<!-- Generator: Adobe Illustrator 21.0.0, SVG Export Plug-In . SVG Version: 6.00 Build 0)  -->
<svg version="1.1" id="Layer_1" xmlns="http://www.w3.org/2000/svg" xmlns:xlink="http://www.w3.org/1999/xlink" x="0px" y="0px"
	 viewBox="0 0 108 108" style="enable-background:new 0 0 108 108;" xml:space="preserve">
<style type="text/css">
	.st0{enable-background:new    ;}
</style>
<path d="M105,59.6c0-2.8-1.2-5.4-3.2-7.4c1.4-1.7,2.2-3.9,2.2-6.3c0-2.6-1.1-5.2-3-7.2c-2.1-2.1-4.8-3.2-7.6-3.2H71.2l1.4-9.3
	c0.2-1.2,0.2-2.4,0.2-3.6c0-9.1-6.2-19.8-14.2-19.8c-2.3,0-4.6,0.8-6.3,2.3l-0.9,0.7l1.2,15.2c0,0.7,0,1.3-0.1,2
	c-0.1,0.7-0.4,1.2-0.8,1.7L39.7,47.4l-4.6,3.9v37.5l3.2,1.4c0.3,0.1,0.7,0.3,1,0.7c4.4,3.7,10,3.7,10.2,3.7h35.6h0.1
	c5.4-0.3,9.7-4.8,9.7-10.3c0-0.9-0.1-1.6-0.3-2.4c3.7-1.6,6.2-5.2,6.2-9.5c0-1.4-0.3-2.7-0.8-4C103,66.6,105,63.3,105,59.6z
	 M96.5,65.5l-2.8,0.9l1.7,2.4c0.9,1.1,1.2,2.4,1.2,3.7c0,3-2.2,5.6-5.1,6.1L88.7,79l1.3,2.5c0.4,0.9,0.7,1.9,0.7,2.8
	c0,3.3-2.5,5.9-5.8,6.1H49.5c-0.1,0-4.4-0.1-7.5-2.7c-0.7-0.5-1.3-1-2-1.3l-0.8-0.3l0,0V53.3l3.7-3.2L55.5,27c0.5-0.9,1-1.9,1.2-2.9
	c0.2-1.1,0.3-2.2,0.2-3.3l-1-13C56.8,7.4,57.7,7,58.7,7c5.4,0,10,8.6,10,15.7c0,1-0.1,2-0.2,2.9l-2.2,14h27.1c1.7,0,3.5,0.8,4.7,2
	c1.2,1.2,1.9,2.7,1.7,4.2c0,2-0.9,3.7-2.4,4.9l-2.5,2l2.7,1.5c2,1.1,3.2,3.2,3.2,5.3C100.9,62.3,99.1,64.7,96.5,65.5z M35,44.2H11.2
	c-2.4,0-4.2,2-4.2,4.2v44.6c0,2.4,2,4.2,4.2,4.2h23.6c2.4,0,4.2-2,4.2-4.2V48.4C39.2,46.1,37.3,44.2,35,44.2z M25.8,89.6
	c-2.5,0-4.5-2-4.5-4.5c0-2.5,2-4.5,4.5-4.5s4.5,2,4.5,4.5C30.3,87.6,28.3,89.6,25.8,89.6z"/>
<text transform="matrix(1 0 0 1 -84 106.5)" style="font-family:'HelveticaNeue-Bold'; font-size:5px;">Created by John T. Garcia</text>
<text transform="matrix(1 0 0 1 -85 111.5)" style="font-family:'HelveticaNeue-Bold'; font-size:5px;">from the Noun Project</text>
</svg>
