<?xml version="1.0" encoding="utf-8"?>
<!-- Generator: Adobe Illustrator 21.0.0, SVG Export Plug-In . SVG Version: 6.00 Build 0)  -->
<svg version="1.1" id="Layer_1" xmlns="http://www.w3.org/2000/svg" xmlns:xlink="http://www.w3.org/1999/xlink" x="0px" y="0px"
	 viewBox="0 0 108 108" style="enable-background:new 0 0 108 108;" xml:space="preserve">
<style type="text/css">
	.st0{enable-background:new    ;}
</style>
<g>
	<g>
		<path d="M47.5,36.2c0.2,0.2,0.4,0.4,0.5,0.2l6.6-1.4c0.2,0,0.2-0.2,0.4-0.2s0.2-0.2,0-0.4L49.5,9.3c0-0.2-0.2-0.2-0.2-0.4
			c-0.2,0-0.2-0.2-0.4,0l-6.6,1.4c-0.2,0-0.2,0.2-0.4,0.2c0,0.2-0.2,0.2,0,0.4L47.5,36.2C47.4,36,47.4,36,47.5,36.2z"/>
		<path d="M85.5,97.3l-17-17.2c-0.2-0.2-0.4-0.2-0.7-0.2l-2.3,1.3c-2.7,1.4-8.1,1.4-9.7-1.6L38.2,47.6c-1.6-2.9,1.3-7.5,3.9-9
			l2.3-1.3c0.2-0.2,0.4-0.4,0.2-0.5l-5.4-23.7c0-0.2-0.2-0.4-0.4-0.4c-0.2,0-0.4,0-0.5,0.2C38,13.6,27.8,25.9,25.7,31
			c-4.3,10.2-1.8,23.8,7.4,40.3l0.2,0.2c9.1,16.5,19.2,26,30.1,28c5.4,0.9,21.3-1.1,21.9-1.1c0.2,0,0.4-0.2,0.4-0.4
			C85.7,97.7,85.5,97.3,85.5,97.3z"/>
		<path d="M94.2,91.4c0.2-0.2,0.2-0.2,0.2-0.4c0-0.2,0-0.4-0.2-0.4L76,72.4c-0.2-0.2-0.2-0.2-0.4-0.2c-0.2,0-0.4,0-0.4,0.2l-4.8,4.8
			c-0.2,0.2-0.2,0.4-0.2,0.7c0,0,0,0,0,0.2l18.1,18.3c0.2,0.2,0.2,0.2,0.4,0.2s0.4,0,0.4-0.2L94.2,91.4z"/>
	</g>
</g>
<text transform="matrix(1 0 0 1 -67.75 106.5)" style="font-family:'HelveticaNeue-Bold'; font-size:5px;">Created by lipi</text>
<text transform="matrix(1 0 0 1 -67.75 111.5)" style="font-family:'HelveticaNeue-Bold'; font-size:5px;">from the Noun Project</text>
</svg>
